<svg width="20" height="20" viewBox="0 0 20 20" fill="none" xmlns="http://www.w3.org/2000/svg">
<path d="M18.3368 7.0659L13.2639 6.32631L10.9965 1.72909C10.5903 0.909647 9.4132 0.89923 9.00348 1.72909L6.73611 6.32631L1.6632 7.0659C0.753475 7.19784 0.388892 8.31937 1.04861 8.96173L4.71875 12.5381L3.8507 17.5902C3.69445 18.5034 4.65625 19.1874 5.46181 18.7603L10 16.3749L14.5382 18.7603C15.3438 19.184 16.3056 18.5034 16.1493 17.5902L15.2813 12.5381L18.9514 8.96173C19.6111 8.31937 19.2465 7.19784 18.3368 7.0659ZM13.4931 11.9548L14.316 16.7603L10 14.493L5.68403 16.7603L6.50695 11.9548L3.01389 8.55201L7.84028 7.85062L10 3.47562L12.1597 7.85062L16.9861 8.55201L13.4931 11.9548Z" fill="#484848"/>
</svg>
