<svg width="250" height="73" viewBox="0 0 250 73" fill="none" xmlns="http://www.w3.org/2000/svg">
<g filter="url(#filter0_b_0_1004)">
<rect y="34" width="125" height="39" fill="white" fill-opacity="0.41"/>
<rect x="0.5" y="34.5" width="124" height="38" stroke="black"/>
</g>
<path d="M30.1287 48.848V60H28.6727V54.944H22.9927V60H21.5367V48.848H22.9927V53.744H28.6727V48.848H30.1287ZM40.3908 51.232V60H38.9348V58.704C38.6575 59.152 38.2681 59.504 37.7668 59.76C37.2761 60.0053 36.7321 60.128 36.1348 60.128C35.4521 60.128 34.8388 59.9893 34.2948 59.712C33.7508 59.424 33.3188 58.9973 32.9988 58.432C32.6895 57.8667 32.5348 57.1787 32.5348 56.368V51.232H33.9748V56.176C33.9748 57.04 34.1935 57.7067 34.6308 58.176C35.0681 58.6347 35.6655 58.864 36.4228 58.864C37.2015 58.864 37.8148 58.624 38.2628 58.144C38.7108 57.664 38.9348 56.9653 38.9348 56.048V51.232H40.3908ZM46.4652 51.088C47.2225 51.088 47.8839 51.2533 48.4492 51.584C49.0252 51.9147 49.4519 52.3307 49.7292 52.832V51.232H51.2012V60.192C51.2012 60.992 51.0305 61.7013 50.6892 62.32C50.3479 62.9493 49.8572 63.44 49.2172 63.792C48.5879 64.144 47.8519 64.32 47.0092 64.32C45.8572 64.32 44.8972 64.048 44.1292 63.504C43.3612 62.96 42.9079 62.2187 42.7692 61.28H44.2092C44.3692 61.8133 44.6999 62.24 45.2012 62.56C45.7025 62.8907 46.3052 63.056 47.0092 63.056C47.8092 63.056 48.4599 62.8053 48.9612 62.304C49.4732 61.8027 49.7292 61.0987 49.7292 60.192V58.352C49.4412 58.864 49.0145 59.2907 48.4492 59.632C47.8839 59.9733 47.2225 60.144 46.4652 60.144C45.6865 60.144 44.9772 59.952 44.3372 59.568C43.7079 59.184 43.2119 58.6453 42.8492 57.952C42.4865 57.2587 42.3052 56.4693 42.3052 55.584C42.3052 54.688 42.4865 53.904 42.8492 53.232C43.2119 52.5493 43.7079 52.0213 44.3372 51.648C44.9772 51.2747 45.6865 51.088 46.4652 51.088ZM49.7292 55.6C49.7292 54.9387 49.5959 54.3627 49.3292 53.872C49.0625 53.3813 48.6999 53.008 48.2412 52.752C47.7932 52.4853 47.2972 52.352 46.7532 52.352C46.2092 52.352 45.7132 52.48 45.2652 52.736C44.8172 52.992 44.4599 53.3653 44.1932 53.856C43.9265 54.3467 43.7932 54.9227 43.7932 55.584C43.7932 56.256 43.9265 56.8427 44.1932 57.344C44.4599 57.8347 44.8172 58.2133 45.2652 58.48C45.7132 58.736 46.2092 58.864 46.7532 58.864C47.2972 58.864 47.7932 58.736 48.2412 58.48C48.6999 58.2133 49.0625 57.8347 49.3292 57.344C49.5959 56.8427 49.7292 56.2613 49.7292 55.6ZM57.4857 60.144C56.6644 60.144 55.9177 59.9573 55.2457 59.584C54.5844 59.2107 54.0617 58.6827 53.6777 58C53.3044 57.3067 53.1177 56.5067 53.1177 55.6C53.1177 54.704 53.3097 53.9147 53.6937 53.232C54.0884 52.5387 54.6217 52.0107 55.2937 51.648C55.9657 51.2747 56.7177 51.088 57.5497 51.088C58.3817 51.088 59.1337 51.2747 59.8057 51.648C60.4777 52.0107 61.0057 52.5333 61.3897 53.216C61.7844 53.8987 61.9817 54.6933 61.9817 55.6C61.9817 56.5067 61.779 57.3067 61.3737 58C60.979 58.6827 60.4404 59.2107 59.7577 59.584C59.075 59.9573 58.3177 60.144 57.4857 60.144ZM57.4857 58.864C58.0084 58.864 58.499 58.7413 58.9577 58.496C59.4164 58.2507 59.7844 57.8827 60.0617 57.392C60.3497 56.9013 60.4937 56.304 60.4937 55.6C60.4937 54.896 60.355 54.2987 60.0777 53.808C59.8004 53.3173 59.4377 52.9547 58.9897 52.72C58.5417 52.4747 58.0564 52.352 57.5337 52.352C57.0004 52.352 56.5097 52.4747 56.0617 52.72C55.6244 52.9547 55.2724 53.3173 55.0057 53.808C54.739 54.2987 54.6057 54.896 54.6057 55.6C54.6057 56.3147 54.7337 56.9173 54.9897 57.408C55.2564 57.8987 55.6084 58.2667 56.0457 58.512C56.483 58.7467 56.963 58.864 57.4857 58.864ZM73.7457 54.256C74.151 54.32 74.519 54.4853 74.8497 54.752C75.191 55.0187 75.4577 55.3493 75.6497 55.744C75.8524 56.1387 75.9537 56.56 75.9537 57.008C75.9537 57.5733 75.8097 58.0853 75.5217 58.544C75.2337 58.992 74.8124 59.3493 74.2577 59.616C73.7137 59.872 73.0684 60 72.3217 60H68.1617V48.848H72.1617C72.919 48.848 73.5644 48.976 74.0977 49.232C74.631 49.4773 75.031 49.8133 75.2977 50.24C75.5644 50.6667 75.6977 51.1467 75.6977 51.68C75.6977 52.3413 75.5164 52.8907 75.1537 53.328C74.8017 53.7547 74.3324 54.064 73.7457 54.256ZM69.6177 53.664H72.0657C72.7484 53.664 73.2764 53.504 73.6497 53.184C74.023 52.864 74.2097 52.4213 74.2097 51.856C74.2097 51.2907 74.023 50.848 73.6497 50.528C73.2764 50.208 72.7377 50.048 72.0337 50.048H69.6177V53.664ZM72.1937 58.8C72.919 58.8 73.4844 58.6293 73.8897 58.288C74.295 57.9467 74.4977 57.472 74.4977 56.864C74.4977 56.2453 74.2844 55.76 73.8577 55.408C73.431 55.0453 72.8604 54.864 72.1457 54.864H69.6177V58.8H72.1937ZM81.7982 60.144C80.9769 60.144 80.2302 59.9573 79.5582 59.584C78.8969 59.2107 78.3742 58.6827 77.9902 58C77.6169 57.3067 77.4302 56.5067 77.4302 55.6C77.4302 54.704 77.6222 53.9147 78.0062 53.232C78.4009 52.5387 78.9342 52.0107 79.6062 51.648C80.2782 51.2747 81.0302 51.088 81.8622 51.088C82.6942 51.088 83.4462 51.2747 84.1182 51.648C84.7902 52.0107 85.3182 52.5333 85.7022 53.216C86.0969 53.8987 86.2942 54.6933 86.2942 55.6C86.2942 56.5067 86.0915 57.3067 85.6862 58C85.2915 58.6827 84.7529 59.2107 84.0702 59.584C83.3875 59.9573 82.6302 60.144 81.7982 60.144ZM81.7982 58.864C82.3209 58.864 82.8115 58.7413 83.2702 58.496C83.7289 58.2507 84.0969 57.8827 84.3742 57.392C84.6622 56.9013 84.8062 56.304 84.8062 55.6C84.8062 54.896 84.6675 54.2987 84.3902 53.808C84.1129 53.3173 83.7502 52.9547 83.3022 52.72C82.8542 52.4747 82.3689 52.352 81.8462 52.352C81.3129 52.352 80.8222 52.4747 80.3742 52.72C79.9369 52.9547 79.5849 53.3173 79.3182 53.808C79.0515 54.2987 78.9182 54.896 78.9182 55.6C78.9182 56.3147 79.0462 56.9173 79.3022 57.408C79.5689 57.8987 79.9209 58.2667 80.3582 58.512C80.7955 58.7467 81.2755 58.864 81.7982 58.864ZM91.3126 60.144C90.6406 60.144 90.0379 60.032 89.5046 59.808C88.9712 59.5733 88.5499 59.2533 88.2406 58.848C87.9312 58.432 87.7606 57.9573 87.7286 57.424H89.2326C89.2752 57.8613 89.4779 58.2187 89.8406 58.496C90.2139 58.7733 90.6992 58.912 91.2966 58.912C91.8512 58.912 92.2886 58.7893 92.6086 58.544C92.9286 58.2987 93.0886 57.9893 93.0886 57.616C93.0886 57.232 92.9179 56.9493 92.5766 56.768C92.2352 56.576 91.7072 56.3893 90.9926 56.208C90.3419 56.0373 89.8086 55.8667 89.3926 55.696C88.9872 55.5147 88.6352 55.2533 88.3366 54.912C88.0486 54.56 87.9046 54.1013 87.9046 53.536C87.9046 53.088 88.0379 52.6773 88.3046 52.304C88.5712 51.9307 88.9499 51.6373 89.4406 51.424C89.9312 51.2 90.4912 51.088 91.1206 51.088C92.0912 51.088 92.8752 51.3333 93.4726 51.824C94.0699 52.3147 94.3899 52.9867 94.4326 53.84H92.9766C92.9446 53.3813 92.7579 53.0133 92.4166 52.736C92.0859 52.4587 91.6379 52.32 91.0726 52.32C90.5499 52.32 90.1339 52.432 89.8246 52.656C89.5152 52.88 89.3606 53.1733 89.3606 53.536C89.3606 53.824 89.4512 54.064 89.6326 54.256C89.8246 54.4373 90.0592 54.5867 90.3366 54.704C90.6246 54.8107 91.0192 54.9333 91.5206 55.072C92.1499 55.2427 92.6619 55.4133 93.0566 55.584C93.4512 55.744 93.7872 55.9893 94.0646 56.32C94.3526 56.6507 94.5019 57.0827 94.5126 57.616C94.5126 58.096 94.3792 58.528 94.1126 58.912C93.8459 59.296 93.4672 59.6 92.9766 59.824C92.4966 60.0373 91.9419 60.144 91.3126 60.144ZM99.6719 60.144C98.9999 60.144 98.3973 60.032 97.8639 59.808C97.3306 59.5733 96.9093 59.2533 96.5999 58.848C96.2906 58.432 96.1199 57.9573 96.0879 57.424H97.5919C97.6346 57.8613 97.8373 58.2187 98.1999 58.496C98.5733 58.7733 99.0586 58.912 99.6559 58.912C100.211 58.912 100.648 58.7893 100.968 58.544C101.288 58.2987 101.448 57.9893 101.448 57.616C101.448 57.232 101.277 56.9493 100.936 56.768C100.595 56.576 100.067 56.3893 99.3519 56.208C98.7013 56.0373 98.1679 55.8667 97.7519 55.696C97.3466 55.5147 96.9946 55.2533 96.6959 54.912C96.4079 54.56 96.2639 54.1013 96.2639 53.536C96.2639 53.088 96.3973 52.6773 96.6639 52.304C96.9306 51.9307 97.3093 51.6373 97.7999 51.424C98.2906 51.2 98.8506 51.088 99.4799 51.088C100.451 51.088 101.235 51.3333 101.832 51.824C102.429 52.3147 102.749 52.9867 102.792 53.84H101.336C101.304 53.3813 101.117 53.0133 100.776 52.736C100.445 52.4587 99.9973 52.32 99.4319 52.32C98.9093 52.32 98.4933 52.432 98.1839 52.656C97.8746 52.88 97.7199 53.1733 97.7199 53.536C97.7199 53.824 97.8106 54.064 97.9919 54.256C98.1839 54.4373 98.4186 54.5867 98.6959 54.704C98.9839 54.8107 99.3786 54.9333 99.8799 55.072C100.509 55.2427 101.021 55.4133 101.416 55.584C101.811 55.744 102.147 55.9893 102.424 56.32C102.712 56.6507 102.861 57.0827 102.872 57.616C102.872 58.096 102.739 58.528 102.472 58.912C102.205 59.296 101.827 59.6 101.336 59.824C100.856 60.0373 100.301 60.144 99.6719 60.144Z" fill="black"/>
<path d="M225 11H104.5L85 30.5" stroke="black"/>
<g filter="url(#filter1_b_0_1004)">
<circle cx="10.5" cy="10.5" r="10.5" transform="matrix(-1 0 0 1 249.5 0)" fill="white" fill-opacity="0.63"/>
<circle cx="10.5" cy="10.5" r="10" transform="matrix(-1 0 0 1 249.5 0)" stroke="black"/>
</g>
<defs>
<filter id="filter0_b_0_1004" x="-12" y="22" width="149" height="63" filterUnits="userSpaceOnUse" color-interpolation-filters="sRGB">
<feFlood flood-opacity="0" result="BackgroundImageFix"/>
<feGaussianBlur in="BackgroundImageFix" stdDeviation="6"/>
<feComposite in2="SourceAlpha" operator="in" result="effect1_backgroundBlur_0_1004"/>
<feBlend mode="normal" in="SourceGraphic" in2="effect1_backgroundBlur_0_1004" result="shape"/>
</filter>
<filter id="filter1_b_0_1004" x="208.5" y="-20" width="61" height="61" filterUnits="userSpaceOnUse" color-interpolation-filters="sRGB">
<feFlood flood-opacity="0" result="BackgroundImageFix"/>
<feGaussianBlur in="BackgroundImageFix" stdDeviation="10"/>
<feComposite in2="SourceAlpha" operator="in" result="effect1_backgroundBlur_0_1004"/>
<feBlend mode="normal" in="SourceGraphic" in2="effect1_backgroundBlur_0_1004" result="shape"/>
</filter>
</defs>
</svg>
