<svg width="250" height="73" viewBox="0 0 250 73" fill="none" xmlns="http://www.w3.org/2000/svg">
<g filter="url(#filter0_b_0_997)">
<rect y="34" width="125" height="39" fill="white" fill-opacity="0.41"/>
<rect x="0.5" y="34.5" width="124" height="38" stroke="black"/>
</g>
<path d="M23.9399 60.112C23.2039 60.112 22.5425 59.984 21.9559 59.728C21.3799 59.4613 20.9265 59.0987 20.5959 58.64C20.2652 58.1707 20.0945 57.632 20.0839 57.024H21.6359C21.6892 57.5467 21.9025 57.9893 22.2759 58.352C22.6599 58.704 23.2145 58.88 23.9399 58.88C24.6332 58.88 25.1772 58.7093 25.5719 58.368C25.9772 58.016 26.1799 57.568 26.1799 57.024C26.1799 56.5973 26.0625 56.2507 25.8279 55.984C25.5932 55.7173 25.2999 55.5147 24.9479 55.376C24.5959 55.2373 24.1212 55.088 23.5239 54.928C22.7879 54.736 22.1959 54.544 21.7479 54.352C21.3105 54.16 20.9319 53.8613 20.6119 53.456C20.3025 53.04 20.1479 52.4853 20.1479 51.792C20.1479 51.184 20.3025 50.6453 20.6119 50.176C20.9212 49.7067 21.3532 49.344 21.9079 49.088C22.4732 48.832 23.1185 48.704 23.8439 48.704C24.8892 48.704 25.7425 48.9653 26.4039 49.488C27.0759 50.0107 27.4545 50.704 27.5399 51.568H25.9399C25.8865 51.1413 25.6625 50.768 25.2679 50.448C24.8732 50.1173 24.3505 49.952 23.6999 49.952C23.0919 49.952 22.5959 50.112 22.2119 50.432C21.8279 50.7413 21.6359 51.1787 21.6359 51.744C21.6359 52.1493 21.7479 52.48 21.9719 52.736C22.2065 52.992 22.4892 53.1893 22.8199 53.328C23.1612 53.456 23.6359 53.6053 24.2439 53.776C24.9799 53.9787 25.5719 54.1813 26.0199 54.384C26.4679 54.576 26.8519 54.88 27.1719 55.296C27.4919 55.7013 27.6519 56.256 27.6519 56.96C27.6519 57.504 27.5079 58.016 27.2199 58.496C26.9319 58.976 26.5052 59.3653 25.9399 59.664C25.3745 59.9627 24.7079 60.112 23.9399 60.112ZM37.5705 51.232V60H36.1145V58.704C35.8372 59.152 35.4478 59.504 34.9465 59.76C34.4558 60.0053 33.9118 60.128 33.3145 60.128C32.6318 60.128 32.0185 59.9893 31.4745 59.712C30.9305 59.424 30.4985 58.9973 30.1785 58.432C29.8692 57.8667 29.7145 57.1787 29.7145 56.368V51.232H31.1545V56.176C31.1545 57.04 31.3732 57.7067 31.8105 58.176C32.2478 58.6347 32.8452 58.864 33.6025 58.864C34.3812 58.864 34.9945 58.624 35.4425 58.144C35.8905 57.664 36.1145 56.9653 36.1145 56.048V51.232H37.5705ZM43.1329 60.144C42.4609 60.144 41.8582 60.032 41.3249 59.808C40.7915 59.5733 40.3702 59.2533 40.0609 58.848C39.7515 58.432 39.5809 57.9573 39.5489 57.424H41.0529C41.0955 57.8613 41.2982 58.2187 41.6609 58.496C42.0342 58.7733 42.5195 58.912 43.1169 58.912C43.6715 58.912 44.1089 58.7893 44.4289 58.544C44.7489 58.2987 44.9089 57.9893 44.9089 57.616C44.9089 57.232 44.7382 56.9493 44.3969 56.768C44.0555 56.576 43.5275 56.3893 42.8129 56.208C42.1622 56.0373 41.6289 55.8667 41.2129 55.696C40.8075 55.5147 40.4555 55.2533 40.1569 54.912C39.8689 54.56 39.7249 54.1013 39.7249 53.536C39.7249 53.088 39.8582 52.6773 40.1249 52.304C40.3915 51.9307 40.7702 51.6373 41.2609 51.424C41.7515 51.2 42.3115 51.088 42.9409 51.088C43.9115 51.088 44.6955 51.3333 45.2929 51.824C45.8902 52.3147 46.2102 52.9867 46.2529 53.84H44.7969C44.7649 53.3813 44.5782 53.0133 44.2369 52.736C43.9062 52.4587 43.4582 52.32 42.8929 52.32C42.3702 52.32 41.9542 52.432 41.6449 52.656C41.3355 52.88 41.1809 53.1733 41.1809 53.536C41.1809 53.824 41.2715 54.064 41.4529 54.256C41.6449 54.4373 41.8795 54.5867 42.1569 54.704C42.4449 54.8107 42.8395 54.9333 43.3409 55.072C43.9702 55.2427 44.4822 55.4133 44.8769 55.584C45.2715 55.744 45.6075 55.9893 45.8849 56.32C46.1729 56.6507 46.3222 57.0827 46.3329 57.616C46.3329 58.096 46.1995 58.528 45.9329 58.912C45.6662 59.296 45.2875 59.6 44.7969 59.824C44.3169 60.0373 43.7622 60.144 43.1329 60.144ZM49.8443 52.848C50.1323 52.3467 50.5589 51.9307 51.1243 51.6C51.7003 51.2587 52.3669 51.088 53.1243 51.088C53.9029 51.088 54.6069 51.2747 55.2362 51.648C55.8762 52.0213 56.3776 52.5493 56.7403 53.232C57.1029 53.904 57.2843 54.688 57.2843 55.584C57.2843 56.4693 57.1029 57.2587 56.7403 57.952C56.3776 58.6453 55.8762 59.184 55.2362 59.568C54.6069 59.952 53.9029 60.144 53.1243 60.144C52.3776 60.144 51.7163 59.9787 51.1403 59.648C50.5749 59.3067 50.1429 58.8853 49.8443 58.384V64.16H48.3883V51.232H49.8443V52.848ZM55.7963 55.584C55.7963 54.9227 55.6629 54.3467 55.3963 53.856C55.1296 53.3653 54.7669 52.992 54.3083 52.736C53.8603 52.48 53.3643 52.352 52.8203 52.352C52.2869 52.352 51.7909 52.4853 51.3323 52.752C50.8843 53.008 50.5216 53.3867 50.2443 53.888C49.9776 54.3787 49.8443 54.9493 49.8443 55.6C49.8443 56.2613 49.9776 56.8427 50.2443 57.344C50.5216 57.8347 50.8843 58.2133 51.3323 58.48C51.7909 58.736 52.2869 58.864 52.8203 58.864C53.3643 58.864 53.8603 58.736 54.3083 58.48C54.7669 58.2133 55.1296 57.8347 55.3963 57.344C55.6629 56.8427 55.7963 56.256 55.7963 55.584ZM67.2008 55.28C67.2008 55.5573 67.1848 55.8507 67.1528 56.16H60.1448C60.1981 57.024 60.4914 57.7013 61.0248 58.192C61.5688 58.672 62.2248 58.912 62.9928 58.912C63.6221 58.912 64.1448 58.768 64.5608 58.48C64.9874 58.1813 65.2861 57.7867 65.4568 57.296H67.0248C66.7901 58.1387 66.3208 58.8267 65.6168 59.36C64.9128 59.8827 64.0381 60.144 62.9928 60.144C62.1608 60.144 61.4141 59.9573 60.7528 59.584C60.1021 59.2107 59.5901 58.6827 59.2168 58C58.8434 57.3067 58.6568 56.5067 58.6568 55.6C58.6568 54.6933 58.8381 53.8987 59.2008 53.216C59.5634 52.5333 60.0701 52.0107 60.7208 51.648C61.3821 51.2747 62.1394 51.088 62.9928 51.088C63.8248 51.088 64.5608 51.2693 65.2008 51.632C65.8408 51.9947 66.3314 52.496 66.6728 53.136C67.0248 53.7653 67.2008 54.48 67.2008 55.28ZM65.6968 54.976C65.6968 54.4213 65.5741 53.9467 65.3288 53.552C65.0834 53.1467 64.7474 52.8427 64.3208 52.64C63.9048 52.4267 63.4408 52.32 62.9288 52.32C62.1928 52.32 61.5634 52.5547 61.0408 53.024C60.5288 53.4933 60.2354 54.144 60.1608 54.976H65.6968ZM73.3946 51.072C74.4613 51.072 75.3253 51.3973 75.9866 52.048C76.648 52.688 76.9786 53.616 76.9786 54.832V60H75.5386V55.04C75.5386 54.1653 75.32 53.4987 74.8826 53.04C74.4453 52.5707 73.848 52.336 73.0906 52.336C72.3226 52.336 71.7093 52.576 71.2506 53.056C70.8026 53.536 70.5786 54.2347 70.5786 55.152V60H69.1226V51.232H70.5786V52.48C70.8666 52.032 71.256 51.6853 71.7466 51.44C72.248 51.1947 72.7973 51.072 73.3946 51.072ZM78.813 55.584C78.813 54.688 78.9943 53.904 79.357 53.232C79.7197 52.5493 80.2157 52.0213 80.845 51.648C81.485 51.2747 82.1997 51.088 82.989 51.088C83.6717 51.088 84.3063 51.248 84.893 51.568C85.4797 51.8773 85.9277 52.288 86.237 52.8V48.16H87.709V60H86.237V58.352C85.949 58.8747 85.5223 59.3067 84.957 59.648C84.3917 59.9787 83.7303 60.144 82.973 60.144C82.1943 60.144 81.485 59.952 80.845 59.568C80.2157 59.184 79.7197 58.6453 79.357 57.952C78.9943 57.2587 78.813 56.4693 78.813 55.584ZM86.237 55.6C86.237 54.9387 86.1037 54.3627 85.837 53.872C85.5703 53.3813 85.2077 53.008 84.749 52.752C84.301 52.4853 83.805 52.352 83.261 52.352C82.717 52.352 82.221 52.48 81.773 52.736C81.325 52.992 80.9677 53.3653 80.701 53.856C80.4343 54.3467 80.301 54.9227 80.301 55.584C80.301 56.256 80.4343 56.8427 80.701 57.344C80.9677 57.8347 81.325 58.2133 81.773 58.48C82.221 58.736 82.717 58.864 83.261 58.864C83.805 58.864 84.301 58.736 84.749 58.48C85.2077 58.2133 85.5703 57.8347 85.837 57.344C86.1037 56.8427 86.237 56.2613 86.237 55.6ZM98.1695 55.28C98.1695 55.5573 98.1535 55.8507 98.1215 56.16H91.1135C91.1668 57.024 91.4602 57.7013 91.9935 58.192C92.5375 58.672 93.1935 58.912 93.9615 58.912C94.5908 58.912 95.1135 58.768 95.5295 58.48C95.9562 58.1813 96.2548 57.7867 96.4255 57.296H97.9935C97.7588 58.1387 97.2895 58.8267 96.5855 59.36C95.8815 59.8827 95.0068 60.144 93.9615 60.144C93.1295 60.144 92.3828 59.9573 91.7215 59.584C91.0708 59.2107 90.5588 58.6827 90.1855 58C89.8122 57.3067 89.6255 56.5067 89.6255 55.6C89.6255 54.6933 89.8068 53.8987 90.1695 53.216C90.5322 52.5333 91.0388 52.0107 91.6895 51.648C92.3508 51.2747 93.1082 51.088 93.9615 51.088C94.7935 51.088 95.5295 51.2693 96.1695 51.632C96.8095 51.9947 97.3002 52.496 97.6415 53.136C97.9935 53.7653 98.1695 54.48 98.1695 55.28ZM96.6655 54.976C96.6655 54.4213 96.5428 53.9467 96.2975 53.552C96.0522 53.1467 95.7162 52.8427 95.2895 52.64C94.8735 52.4267 94.4095 52.32 93.8975 52.32C93.1615 52.32 92.5322 52.5547 92.0095 53.024C91.4975 53.4933 91.2042 54.144 91.1295 54.976H96.6655ZM101.547 52.656C101.803 52.1547 102.166 51.7653 102.635 51.488C103.115 51.2107 103.697 51.072 104.379 51.072V52.576H103.995C102.363 52.576 101.547 53.4613 101.547 55.232V60H100.091V51.232H101.547V52.656Z" fill="black"/>
<path d="M225 11H104.5L85 30.5" stroke="black"/>
<g filter="url(#filter1_b_0_997)">
<circle cx="10.5" cy="10.5" r="10.5" transform="matrix(-1 0 0 1 249.5 0)" fill="white" fill-opacity="0.63"/>
<circle cx="10.5" cy="10.5" r="10" transform="matrix(-1 0 0 1 249.5 0)" stroke="black"/>
</g>
<defs>
<filter id="filter0_b_0_997" x="-12" y="22" width="149" height="63" filterUnits="userSpaceOnUse" color-interpolation-filters="sRGB">
<feFlood flood-opacity="0" result="BackgroundImageFix"/>
<feGaussianBlur in="BackgroundImageFix" stdDeviation="6"/>
<feComposite in2="SourceAlpha" operator="in" result="effect1_backgroundBlur_0_997"/>
<feBlend mode="normal" in="SourceGraphic" in2="effect1_backgroundBlur_0_997" result="shape"/>
</filter>
<filter id="filter1_b_0_997" x="208.5" y="-20" width="61" height="61" filterUnits="userSpaceOnUse" color-interpolation-filters="sRGB">
<feFlood flood-opacity="0" result="BackgroundImageFix"/>
<feGaussianBlur in="BackgroundImageFix" stdDeviation="10"/>
<feComposite in2="SourceAlpha" operator="in" result="effect1_backgroundBlur_0_997"/>
<feBlend mode="normal" in="SourceGraphic" in2="effect1_backgroundBlur_0_997" result="shape"/>
</filter>
</defs>
</svg>
