<svg width="230" height="75" viewBox="0 0 230 75" fill="none" xmlns="http://www.w3.org/2000/svg">
<g filter="url(#filter0_b_0_990)">
<rect x="105" y="36" width="125" height="39" fill="white" fill-opacity="0.41"/>
<rect x="105.5" y="36.5" width="124" height="38" stroke="black"/>
</g>
<path d="M141.932 62.112C141.196 62.112 140.535 61.984 139.948 61.728C139.372 61.4613 138.919 61.0987 138.588 60.64C138.257 60.1707 138.087 59.632 138.076 59.024H139.628C139.681 59.5467 139.895 59.9893 140.268 60.352C140.652 60.704 141.207 60.88 141.932 60.88C142.625 60.88 143.169 60.7093 143.564 60.368C143.969 60.016 144.172 59.568 144.172 59.024C144.172 58.5973 144.055 58.2507 143.82 57.984C143.585 57.7173 143.292 57.5147 142.94 57.376C142.588 57.2373 142.113 57.088 141.516 56.928C140.78 56.736 140.188 56.544 139.74 56.352C139.303 56.16 138.924 55.8613 138.604 55.456C138.295 55.04 138.14 54.4853 138.14 53.792C138.14 53.184 138.295 52.6453 138.604 52.176C138.913 51.7067 139.345 51.344 139.9 51.088C140.465 50.832 141.111 50.704 141.836 50.704C142.881 50.704 143.735 50.9653 144.396 51.488C145.068 52.0107 145.447 52.704 145.532 53.568H143.932C143.879 53.1413 143.655 52.768 143.26 52.448C142.865 52.1173 142.343 51.952 141.692 51.952C141.084 51.952 140.588 52.112 140.204 52.432C139.82 52.7413 139.628 53.1787 139.628 53.744C139.628 54.1493 139.74 54.48 139.964 54.736C140.199 54.992 140.481 55.1893 140.812 55.328C141.153 55.456 141.628 55.6053 142.236 55.776C142.972 55.9787 143.564 56.1813 144.012 56.384C144.46 56.576 144.844 56.88 145.164 57.296C145.484 57.7013 145.644 58.256 145.644 58.96C145.644 59.504 145.5 60.016 145.212 60.496C144.924 60.976 144.497 61.3653 143.932 61.664C143.367 61.9627 142.7 62.112 141.932 62.112ZM147.243 57.584C147.243 56.688 147.424 55.904 147.787 55.232C148.149 54.5493 148.645 54.0213 149.275 53.648C149.915 53.2747 150.624 53.088 151.403 53.088C152.171 53.088 152.837 53.2533 153.403 53.584C153.968 53.9147 154.389 54.3307 154.667 54.832V53.232H156.139V62H154.667V60.368C154.379 60.88 153.947 61.3067 153.371 61.648C152.805 61.9787 152.144 62.144 151.387 62.144C150.608 62.144 149.904 61.952 149.275 61.568C148.645 61.184 148.149 60.6453 147.787 59.952C147.424 59.2587 147.243 58.4693 147.243 57.584ZM154.667 57.6C154.667 56.9387 154.533 56.3627 154.267 55.872C154 55.3813 153.637 55.008 153.179 54.752C152.731 54.4853 152.235 54.352 151.691 54.352C151.147 54.352 150.651 54.48 150.203 54.736C149.755 54.992 149.397 55.3653 149.131 55.856C148.864 56.3467 148.731 56.9227 148.731 57.584C148.731 58.256 148.864 58.8427 149.131 59.344C149.397 59.8347 149.755 60.2133 150.203 60.48C150.651 60.736 151.147 60.864 151.691 60.864C152.235 60.864 152.731 60.736 153.179 60.48C153.637 60.2133 154 59.8347 154.267 59.344C154.533 58.8427 154.667 58.2613 154.667 57.6ZM162.871 53.072C163.938 53.072 164.802 53.3973 165.463 54.048C166.125 54.688 166.455 55.616 166.455 56.832V62H165.015V57.04C165.015 56.1653 164.797 55.4987 164.359 55.04C163.922 54.5707 163.325 54.336 162.567 54.336C161.799 54.336 161.186 54.576 160.727 55.056C160.279 55.536 160.055 56.2347 160.055 57.152V62H158.599V53.232H160.055V54.48C160.343 54.032 160.733 53.6853 161.223 53.44C161.725 53.1947 162.274 53.072 162.871 53.072ZM170.61 54.432V59.6C170.61 60.0267 170.7 60.3307 170.882 60.512C171.063 60.6827 171.378 60.768 171.826 60.768H172.898V62H171.586C170.775 62 170.167 61.8133 169.762 61.44C169.356 61.0667 169.154 60.4533 169.154 59.6V54.432H168.018V53.232H169.154V51.024H170.61V53.232H172.898V54.432H170.61ZM178.486 62.144C177.664 62.144 176.918 61.9573 176.246 61.584C175.584 61.2107 175.062 60.6827 174.678 60C174.304 59.3067 174.118 58.5067 174.118 57.6C174.118 56.704 174.31 55.9147 174.694 55.232C175.088 54.5387 175.622 54.0107 176.294 53.648C176.966 53.2747 177.718 53.088 178.55 53.088C179.382 53.088 180.134 53.2747 180.806 53.648C181.478 54.0107 182.006 54.5333 182.39 55.216C182.784 55.8987 182.982 56.6933 182.982 57.6C182.982 58.5067 182.779 59.3067 182.374 60C181.979 60.6827 181.44 61.2107 180.758 61.584C180.075 61.9573 179.318 62.144 178.486 62.144ZM178.486 60.864C179.008 60.864 179.499 60.7413 179.958 60.496C180.416 60.2507 180.784 59.8827 181.062 59.392C181.35 58.9013 181.494 58.304 181.494 57.6C181.494 56.896 181.355 56.2987 181.078 55.808C180.8 55.3173 180.438 54.9547 179.99 54.72C179.542 54.4747 179.056 54.352 178.534 54.352C178 54.352 177.51 54.4747 177.062 54.72C176.624 54.9547 176.272 55.3173 176.006 55.808C175.739 56.2987 175.606 56.896 175.606 57.6C175.606 58.3147 175.734 58.9173 175.99 59.408C176.256 59.8987 176.608 60.2667 177.046 60.512C177.483 60.7467 177.963 60.864 178.486 60.864ZM189.168 53.072C190.235 53.072 191.099 53.3973 191.76 54.048C192.421 54.688 192.752 55.616 192.752 56.832V62H191.312V57.04C191.312 56.1653 191.093 55.4987 190.656 55.04C190.219 54.5707 189.621 54.336 188.864 54.336C188.096 54.336 187.483 54.576 187.024 55.056C186.576 55.536 186.352 56.2347 186.352 57.152V62H184.896V53.232H186.352V54.48C186.64 54.032 187.029 53.6853 187.52 53.44C188.021 53.1947 188.571 53.072 189.168 53.072ZM195.882 51.808C195.605 51.808 195.37 51.712 195.178 51.52C194.986 51.328 194.89 51.0933 194.89 50.816C194.89 50.5387 194.986 50.304 195.178 50.112C195.37 49.92 195.605 49.824 195.882 49.824C196.149 49.824 196.373 49.92 196.554 50.112C196.746 50.304 196.842 50.5387 196.842 50.816C196.842 51.0933 196.746 51.328 196.554 51.52C196.373 51.712 196.149 51.808 195.882 51.808ZM196.586 53.232V62H195.13V53.232H196.586Z" fill="black"/>
<path d="M24.5 11H85L104.5 30.5" stroke="black"/>
<g filter="url(#filter1_b_0_990)">
<circle cx="10.5" cy="10.5" r="10.5" fill="white" fill-opacity="0.63"/>
<circle cx="10.5" cy="10.5" r="10" stroke="black"/>
</g>
<defs>
<filter id="filter0_b_0_990" x="93" y="24" width="149" height="63" filterUnits="userSpaceOnUse" color-interpolation-filters="sRGB">
<feFlood flood-opacity="0" result="BackgroundImageFix"/>
<feGaussianBlur in="BackgroundImageFix" stdDeviation="6"/>
<feComposite in2="SourceAlpha" operator="in" result="effect1_backgroundBlur_0_990"/>
<feBlend mode="normal" in="SourceGraphic" in2="effect1_backgroundBlur_0_990" result="shape"/>
</filter>
<filter id="filter1_b_0_990" x="-20" y="-20" width="61" height="61" filterUnits="userSpaceOnUse" color-interpolation-filters="sRGB">
<feFlood flood-opacity="0" result="BackgroundImageFix"/>
<feGaussianBlur in="BackgroundImageFix" stdDeviation="10"/>
<feComposite in2="SourceAlpha" operator="in" result="effect1_backgroundBlur_0_990"/>
<feBlend mode="normal" in="SourceGraphic" in2="effect1_backgroundBlur_0_990" result="shape"/>
</filter>
</defs>
</svg>
