<svg width="230" height="75" viewBox="0 0 230 75" fill="none" xmlns="http://www.w3.org/2000/svg">
<g filter="url(#filter0_b_0_976)">
<rect x="105" y="36" width="125" height="39" fill="white" fill-opacity="0.41"/>
<rect x="105.5" y="36.5" width="124" height="38" stroke="black"/>
</g>
<path d="M141.591 50.848V52.032H136.743V55.792H140.679V56.976H136.743V62H135.287V50.848H141.591ZM144.805 50.16V62H143.349V50.16H144.805ZM146.743 57.584C146.743 56.688 146.924 55.904 147.287 55.232C147.649 54.5493 148.145 54.0213 148.775 53.648C149.415 53.2747 150.124 53.088 150.903 53.088C151.671 53.088 152.337 53.2533 152.903 53.584C153.468 53.9147 153.889 54.3307 154.167 54.832V53.232H155.639V62H154.167V60.368C153.879 60.88 153.447 61.3067 152.871 61.648C152.305 61.9787 151.644 62.144 150.887 62.144C150.108 62.144 149.404 61.952 148.775 61.568C148.145 61.184 147.649 60.6453 147.287 59.952C146.924 59.2587 146.743 58.4693 146.743 57.584ZM154.167 57.6C154.167 56.9387 154.033 56.3627 153.767 55.872C153.5 55.3813 153.137 55.008 152.679 54.752C152.231 54.4853 151.735 54.352 151.191 54.352C150.647 54.352 150.151 54.48 149.703 54.736C149.255 54.992 148.897 55.3653 148.631 55.856C148.364 56.3467 148.231 56.9227 148.231 57.584C148.231 58.256 148.364 58.8427 148.631 59.344C148.897 59.8347 149.255 60.2133 149.703 60.48C150.151 60.736 150.647 60.864 151.191 60.864C151.735 60.864 152.231 60.736 152.679 60.48C153.137 60.2133 153.5 59.8347 153.767 59.344C154.033 58.8427 154.167 58.2613 154.167 57.6ZM159.875 54.432V59.6C159.875 60.0267 159.966 60.3307 160.147 60.512C160.329 60.6827 160.643 60.768 161.091 60.768H162.163V62H160.851C160.041 62 159.433 61.8133 159.027 61.44C158.622 61.0667 158.419 60.4533 158.419 59.6V54.432H157.283V53.232H158.419V51.024H159.875V53.232H162.163V54.432H159.875ZM167.649 56.416C167.649 55.328 167.894 54.352 168.385 53.488C168.876 52.6133 169.542 51.9307 170.385 51.44C171.238 50.9493 172.182 50.704 173.217 50.704C174.433 50.704 175.494 50.9973 176.401 51.584C177.308 52.1707 177.969 53.0027 178.385 54.08H176.641C176.332 53.408 175.884 52.8907 175.297 52.528C174.721 52.1653 174.028 51.984 173.217 51.984C172.438 51.984 171.74 52.1653 171.121 52.528C170.502 52.8907 170.017 53.408 169.665 54.08C169.313 54.7413 169.137 55.52 169.137 56.416C169.137 57.3013 169.313 58.08 169.665 58.752C170.017 59.4133 170.502 59.9253 171.121 60.288C171.74 60.6507 172.438 60.832 173.217 60.832C174.028 60.832 174.721 60.656 175.297 60.304C175.884 59.9413 176.332 59.424 176.641 58.752H178.385C177.969 59.8187 177.308 60.6453 176.401 61.232C175.494 61.808 174.433 62.096 173.217 62.096C172.182 62.096 171.238 61.856 170.385 61.376C169.542 60.8853 168.876 60.208 168.385 59.344C167.894 58.48 167.649 57.504 167.649 56.416ZM180.008 57.584C180.008 56.688 180.19 55.904 180.552 55.232C180.915 54.5493 181.411 54.0213 182.04 53.648C182.68 53.2747 183.39 53.088 184.168 53.088C184.936 53.088 185.603 53.2533 186.168 53.584C186.734 53.9147 187.155 54.3307 187.432 54.832V53.232H188.904V62H187.432V60.368C187.144 60.88 186.712 61.3067 186.136 61.648C185.571 61.9787 184.91 62.144 184.152 62.144C183.374 62.144 182.67 61.952 182.04 61.568C181.411 61.184 180.915 60.6453 180.552 59.952C180.19 59.2587 180.008 58.4693 180.008 57.584ZM187.432 57.6C187.432 56.9387 187.299 56.3627 187.032 55.872C186.766 55.3813 186.403 55.008 185.944 54.752C185.496 54.4853 185 54.352 184.456 54.352C183.912 54.352 183.416 54.48 182.968 54.736C182.52 54.992 182.163 55.3653 181.896 55.856C181.63 56.3467 181.496 56.9227 181.496 57.584C181.496 58.256 181.63 58.8427 181.896 59.344C182.163 59.8347 182.52 60.2133 182.968 60.48C183.416 60.736 183.912 60.864 184.456 60.864C185 60.864 185.496 60.736 185.944 60.48C186.403 60.2133 186.766 59.8347 187.032 59.344C187.299 58.8427 187.432 58.2613 187.432 57.6ZM192.821 54.848C193.109 54.3467 193.535 53.9307 194.101 53.6C194.677 53.2587 195.343 53.088 196.101 53.088C196.879 53.088 197.583 53.2747 198.213 53.648C198.853 54.0213 199.354 54.5493 199.717 55.232C200.079 55.904 200.261 56.688 200.261 57.584C200.261 58.4693 200.079 59.2587 199.717 59.952C199.354 60.6453 198.853 61.184 198.213 61.568C197.583 61.952 196.879 62.144 196.101 62.144C195.354 62.144 194.693 61.9787 194.117 61.648C193.551 61.3067 193.119 60.8853 192.821 60.384V66.16H191.365V53.232H192.821V54.848ZM198.773 57.584C198.773 56.9227 198.639 56.3467 198.373 55.856C198.106 55.3653 197.743 54.992 197.285 54.736C196.837 54.48 196.341 54.352 195.797 54.352C195.263 54.352 194.767 54.4853 194.309 54.752C193.861 55.008 193.498 55.3867 193.221 55.888C192.954 56.3787 192.821 56.9493 192.821 57.6C192.821 58.2613 192.954 58.8427 193.221 59.344C193.498 59.8347 193.861 60.2133 194.309 60.48C194.767 60.736 195.263 60.864 195.797 60.864C196.341 60.864 196.837 60.736 197.285 60.48C197.743 60.2133 198.106 59.8347 198.373 59.344C198.639 58.8427 198.773 58.256 198.773 57.584Z" fill="black"/>
<path d="M24.5 11H85L104.5 30.5" stroke="black"/>
<g filter="url(#filter1_b_0_976)">
<circle cx="10.5" cy="10.5" r="10.5" fill="white" fill-opacity="0.63"/>
<circle cx="10.5" cy="10.5" r="10" stroke="black"/>
</g>
<defs>
<filter id="filter0_b_0_976" x="93" y="24" width="149" height="63" filterUnits="userSpaceOnUse" color-interpolation-filters="sRGB">
<feFlood flood-opacity="0" result="BackgroundImageFix"/>
<feGaussianBlur in="BackgroundImageFix" stdDeviation="6"/>
<feComposite in2="SourceAlpha" operator="in" result="effect1_backgroundBlur_0_976"/>
<feBlend mode="normal" in="SourceGraphic" in2="effect1_backgroundBlur_0_976" result="shape"/>
</filter>
<filter id="filter1_b_0_976" x="-20" y="-20" width="61" height="61" filterUnits="userSpaceOnUse" color-interpolation-filters="sRGB">
<feFlood flood-opacity="0" result="BackgroundImageFix"/>
<feGaussianBlur in="BackgroundImageFix" stdDeviation="10"/>
<feComposite in2="SourceAlpha" operator="in" result="effect1_backgroundBlur_0_976"/>
<feBlend mode="normal" in="SourceGraphic" in2="effect1_backgroundBlur_0_976" result="shape"/>
</filter>
</defs>
</svg>
