<svg width="230" height="75" viewBox="0 0 230 75" fill="none" xmlns="http://www.w3.org/2000/svg">
<g filter="url(#filter0_b_0_983)">
<rect x="105" y="36" width="125" height="39" fill="white" fill-opacity="0.41"/>
<rect x="105.5" y="36.5" width="124" height="38" stroke="black"/>
</g>
<path d="M135.129 50.848V62H133.673V56.944H127.993V62H126.537V50.848H127.993V55.744H133.673V50.848H135.129ZM145.391 53.232V62H143.935V60.704C143.657 61.152 143.268 61.504 142.767 61.76C142.276 62.0053 141.732 62.128 141.135 62.128C140.452 62.128 139.839 61.9893 139.295 61.712C138.751 61.424 138.319 60.9973 137.999 60.432C137.689 59.8667 137.535 59.1787 137.535 58.368V53.232H138.975V58.176C138.975 59.04 139.193 59.7067 139.631 60.176C140.068 60.6347 140.665 60.864 141.423 60.864C142.201 60.864 142.815 60.624 143.263 60.144C143.711 59.664 143.935 58.9653 143.935 58.048V53.232H145.391ZM151.465 53.088C152.223 53.088 152.884 53.2533 153.449 53.584C154.025 53.9147 154.452 54.3307 154.729 54.832V53.232H156.201V62.192C156.201 62.992 156.031 63.7013 155.689 64.32C155.348 64.9493 154.857 65.44 154.217 65.792C153.588 66.144 152.852 66.32 152.009 66.32C150.857 66.32 149.897 66.048 149.129 65.504C148.361 64.96 147.908 64.2187 147.769 63.28H149.209C149.369 63.8133 149.7 64.24 150.201 64.56C150.703 64.8907 151.305 65.056 152.009 65.056C152.809 65.056 153.46 64.8053 153.961 64.304C154.473 63.8027 154.729 63.0987 154.729 62.192V60.352C154.441 60.864 154.015 61.2907 153.449 61.632C152.884 61.9733 152.223 62.144 151.465 62.144C150.687 62.144 149.977 61.952 149.337 61.568C148.708 61.184 148.212 60.6453 147.849 59.952C147.487 59.2587 147.305 58.4693 147.305 57.584C147.305 56.688 147.487 55.904 147.849 55.232C148.212 54.5493 148.708 54.0213 149.337 53.648C149.977 53.2747 150.687 53.088 151.465 53.088ZM154.729 57.6C154.729 56.9387 154.596 56.3627 154.329 55.872C154.063 55.3813 153.7 55.008 153.241 54.752C152.793 54.4853 152.297 54.352 151.753 54.352C151.209 54.352 150.713 54.48 150.265 54.736C149.817 54.992 149.46 55.3653 149.193 55.856C148.927 56.3467 148.793 56.9227 148.793 57.584C148.793 58.256 148.927 58.8427 149.193 59.344C149.46 59.8347 149.817 60.2133 150.265 60.48C150.713 60.736 151.209 60.864 151.753 60.864C152.297 60.864 152.793 60.736 153.241 60.48C153.7 60.2133 154.063 59.8347 154.329 59.344C154.596 58.8427 154.729 58.2613 154.729 57.6ZM162.486 62.144C161.664 62.144 160.918 61.9573 160.246 61.584C159.584 61.2107 159.062 60.6827 158.678 60C158.304 59.3067 158.118 58.5067 158.118 57.6C158.118 56.704 158.31 55.9147 158.694 55.232C159.088 54.5387 159.622 54.0107 160.294 53.648C160.966 53.2747 161.718 53.088 162.55 53.088C163.382 53.088 164.134 53.2747 164.806 53.648C165.478 54.0107 166.006 54.5333 166.39 55.216C166.784 55.8987 166.982 56.6933 166.982 57.6C166.982 58.5067 166.779 59.3067 166.374 60C165.979 60.6827 165.44 61.2107 164.758 61.584C164.075 61.9573 163.318 62.144 162.486 62.144ZM162.486 60.864C163.008 60.864 163.499 60.7413 163.958 60.496C164.416 60.2507 164.784 59.8827 165.062 59.392C165.35 58.9013 165.494 58.304 165.494 57.6C165.494 56.896 165.355 56.2987 165.078 55.808C164.8 55.3173 164.438 54.9547 163.99 54.72C163.542 54.4747 163.056 54.352 162.534 54.352C162 54.352 161.51 54.4747 161.062 54.72C160.624 54.9547 160.272 55.3173 160.006 55.808C159.739 56.2987 159.606 56.896 159.606 57.6C159.606 58.3147 159.734 58.9173 159.99 59.408C160.256 59.8987 160.608 60.2667 161.046 60.512C161.483 60.7467 161.963 60.864 162.486 60.864ZM178.746 56.256C179.151 56.32 179.519 56.4853 179.85 56.752C180.191 57.0187 180.458 57.3493 180.65 57.744C180.852 58.1387 180.954 58.56 180.954 59.008C180.954 59.5733 180.81 60.0853 180.522 60.544C180.234 60.992 179.812 61.3493 179.258 61.616C178.714 61.872 178.068 62 177.322 62H173.162V50.848H177.162C177.919 50.848 178.564 50.976 179.098 51.232C179.631 51.4773 180.031 51.8133 180.298 52.24C180.564 52.6667 180.698 53.1467 180.698 53.68C180.698 54.3413 180.516 54.8907 180.154 55.328C179.802 55.7547 179.332 56.064 178.746 56.256ZM174.618 55.664H177.066C177.748 55.664 178.276 55.504 178.65 55.184C179.023 54.864 179.21 54.4213 179.21 53.856C179.21 53.2907 179.023 52.848 178.65 52.528C178.276 52.208 177.738 52.048 177.034 52.048H174.618V55.664ZM177.194 60.8C177.919 60.8 178.484 60.6293 178.89 60.288C179.295 59.9467 179.498 59.472 179.498 58.864C179.498 58.2453 179.284 57.76 178.858 57.408C178.431 57.0453 177.86 56.864 177.146 56.864H174.618V60.8H177.194ZM186.798 62.144C185.977 62.144 185.23 61.9573 184.558 61.584C183.897 61.2107 183.374 60.6827 182.99 60C182.617 59.3067 182.43 58.5067 182.43 57.6C182.43 56.704 182.622 55.9147 183.006 55.232C183.401 54.5387 183.934 54.0107 184.606 53.648C185.278 53.2747 186.03 53.088 186.862 53.088C187.694 53.088 188.446 53.2747 189.118 53.648C189.79 54.0107 190.318 54.5333 190.702 55.216C191.097 55.8987 191.294 56.6933 191.294 57.6C191.294 58.5067 191.092 59.3067 190.686 60C190.292 60.6827 189.753 61.2107 189.07 61.584C188.388 61.9573 187.63 62.144 186.798 62.144ZM186.798 60.864C187.321 60.864 187.812 60.7413 188.27 60.496C188.729 60.2507 189.097 59.8827 189.374 59.392C189.662 58.9013 189.806 58.304 189.806 57.6C189.806 56.896 189.668 56.2987 189.39 55.808C189.113 55.3173 188.75 54.9547 188.302 54.72C187.854 54.4747 187.369 54.352 186.846 54.352C186.313 54.352 185.822 54.4747 185.374 54.72C184.937 54.9547 184.585 55.3173 184.318 55.808C184.052 56.2987 183.918 56.896 183.918 57.6C183.918 58.3147 184.046 58.9173 184.302 59.408C184.569 59.8987 184.921 60.2667 185.358 60.512C185.796 60.7467 186.276 60.864 186.798 60.864ZM196.313 62.144C195.641 62.144 195.038 62.032 194.505 61.808C193.971 61.5733 193.55 61.2533 193.241 60.848C192.931 60.432 192.761 59.9573 192.729 59.424H194.233C194.275 59.8613 194.478 60.2187 194.841 60.496C195.214 60.7733 195.699 60.912 196.297 60.912C196.851 60.912 197.289 60.7893 197.609 60.544C197.929 60.2987 198.089 59.9893 198.089 59.616C198.089 59.232 197.918 58.9493 197.577 58.768C197.235 58.576 196.707 58.3893 195.993 58.208C195.342 58.0373 194.809 57.8667 194.393 57.696C193.987 57.5147 193.635 57.2533 193.337 56.912C193.049 56.56 192.905 56.1013 192.905 55.536C192.905 55.088 193.038 54.6773 193.305 54.304C193.571 53.9307 193.95 53.6373 194.441 53.424C194.931 53.2 195.491 53.088 196.121 53.088C197.091 53.088 197.875 53.3333 198.473 53.824C199.07 54.3147 199.39 54.9867 199.433 55.84H197.977C197.945 55.3813 197.758 55.0133 197.417 54.736C197.086 54.4587 196.638 54.32 196.073 54.32C195.55 54.32 195.134 54.432 194.825 54.656C194.515 54.88 194.361 55.1733 194.361 55.536C194.361 55.824 194.451 56.064 194.633 56.256C194.825 56.4373 195.059 56.5867 195.337 56.704C195.625 56.8107 196.019 56.9333 196.521 57.072C197.15 57.2427 197.662 57.4133 198.057 57.584C198.451 57.744 198.787 57.9893 199.065 58.32C199.353 58.6507 199.502 59.0827 199.513 59.616C199.513 60.096 199.379 60.528 199.113 60.912C198.846 61.296 198.467 61.6 197.977 61.824C197.497 62.0373 196.942 62.144 196.313 62.144ZM204.672 62.144C204 62.144 203.397 62.032 202.864 61.808C202.331 61.5733 201.909 61.2533 201.6 60.848C201.291 60.432 201.12 59.9573 201.088 59.424H202.592C202.635 59.8613 202.837 60.2187 203.2 60.496C203.573 60.7733 204.059 60.912 204.656 60.912C205.211 60.912 205.648 60.7893 205.968 60.544C206.288 60.2987 206.448 59.9893 206.448 59.616C206.448 59.232 206.277 58.9493 205.936 58.768C205.595 58.576 205.067 58.3893 204.352 58.208C203.701 58.0373 203.168 57.8667 202.752 57.696C202.347 57.5147 201.995 57.2533 201.696 56.912C201.408 56.56 201.264 56.1013 201.264 55.536C201.264 55.088 201.397 54.6773 201.664 54.304C201.931 53.9307 202.309 53.6373 202.8 53.424C203.291 53.2 203.851 53.088 204.48 53.088C205.451 53.088 206.235 53.3333 206.832 53.824C207.429 54.3147 207.749 54.9867 207.792 55.84H206.336C206.304 55.3813 206.117 55.0133 205.776 54.736C205.445 54.4587 204.997 54.32 204.432 54.32C203.909 54.32 203.493 54.432 203.184 54.656C202.875 54.88 202.72 55.1733 202.72 55.536C202.72 55.824 202.811 56.064 202.992 56.256C203.184 56.4373 203.419 56.5867 203.696 56.704C203.984 56.8107 204.379 56.9333 204.88 57.072C205.509 57.2427 206.021 57.4133 206.416 57.584C206.811 57.744 207.147 57.9893 207.424 58.32C207.712 58.6507 207.861 59.0827 207.872 59.616C207.872 60.096 207.739 60.528 207.472 60.912C207.205 61.296 206.827 61.6 206.336 61.824C205.856 62.0373 205.301 62.144 204.672 62.144Z" fill="black"/>
<path d="M24.5 11H85L104.5 30.5" stroke="black"/>
<g filter="url(#filter1_b_0_983)">
<circle cx="10.5" cy="10.5" r="10.5" fill="white" fill-opacity="0.63"/>
<circle cx="10.5" cy="10.5" r="10" stroke="black"/>
</g>
<defs>
<filter id="filter0_b_0_983" x="93" y="24" width="149" height="63" filterUnits="userSpaceOnUse" color-interpolation-filters="sRGB">
<feFlood flood-opacity="0" result="BackgroundImageFix"/>
<feGaussianBlur in="BackgroundImageFix" stdDeviation="6"/>
<feComposite in2="SourceAlpha" operator="in" result="effect1_backgroundBlur_0_983"/>
<feBlend mode="normal" in="SourceGraphic" in2="effect1_backgroundBlur_0_983" result="shape"/>
</filter>
<filter id="filter1_b_0_983" x="-20" y="-20" width="61" height="61" filterUnits="userSpaceOnUse" color-interpolation-filters="sRGB">
<feFlood flood-opacity="0" result="BackgroundImageFix"/>
<feGaussianBlur in="BackgroundImageFix" stdDeviation="10"/>
<feComposite in2="SourceAlpha" operator="in" result="effect1_backgroundBlur_0_983"/>
<feBlend mode="normal" in="SourceGraphic" in2="effect1_backgroundBlur_0_983" result="shape"/>
</filter>
</defs>
</svg>
